<svg xmlns="http://www.w3.org/2000/svg" viewBox ="0 0 24 24" fill="white" width="24" height="24">
    <path fill-rule="evenodd" clip-rule="evenodd" d="M17.789 17.07a2.234 2.234 0 110-4.468 2.234 2.234 0 010 4.468zm-11.603-.121c-1.202 0-2.177-.966-2.177-2.152 0-1.188.975-2.153 2.177-2.153.071 0 .171.006.277.014l1.884 2.409a2.173 2.173 0 01-2.161 1.882zm11.594-6.291l-.182.004a4.28 4.28 0 00-.723.093l-1.011-2.439h2.453a.927.927 0 00.925-.925V5h-1.825v1.647l-2.241.007-.086-.207A2.343 2.343 0 0012.925 5H9.714v1.83h3.211a.485.485 0 01.449.3l.572 1.381-2.331 4.08c-.08.098-.158.199-.235.296-.367.475-.521.632-.698.632h-.999l-2.237-3.198h1.065v-1.9H3.895v1.9h1.301l.279.397C3.501 11.051 2 12.751 2 14.797c0 2.285 1.874 4.137 4.186 4.137 2.123 0 3.875-1.56 4.149-3.585h.347c1.121 0 1.725-.779 2.167-1.347.08-.103.16-.207.245-.309a.79.79 0 00.093-.135l1.651-2.889.358.863a4.147 4.147 0 00-1.635 3.297c0 2.303 1.889 4.171 4.219 4.171S22 17.132 22 14.829s-1.89-4.171-4.22-4.171"></path>
</svg>